<svg xmlns="http://www.w3.org/2000/svg" width="14.532" height="17.096" viewBox="0 0 14.532 17.096">
  <path id="Location" d="M7.27,17.1a1.161,1.161,0,0,1-.627-.212A18.389,18.389,0,0,1,1.906,12.49,8.877,8.877,0,0,1,0,7.11a6.982,6.982,0,0,1,2.14-5.03A7.292,7.292,0,0,1,7.26,0a7.2,7.2,0,0,1,7.272,7.11,8.881,8.881,0,0,1-1.906,5.38,18.737,18.737,0,0,1-4.737,4.394A1.128,1.128,0,0,1,7.27,17.1ZM7.26,4.938A2.4,2.4,0,0,0,4.868,7.332,2.318,2.318,0,0,0,5.57,9,2.413,2.413,0,0,0,9.664,7.332a2.414,2.414,0,0,0-2.4-2.393Z" fill="#97aabd"/>
</svg>
