<svg id="Iconly_Bulk_Filter" data-name="Iconly/Bulk/Filter" xmlns="http://www.w3.org/2000/svg" xmlns:xlink="http://www.w3.org/1999/xlink" width="15.729" height="13.813" viewBox="0 0 15.729 13.813">
  <defs>
    <linearGradient id="linear-gradient" x1="0.5" x2="0.5" y2="1" gradientUnits="objectBoundingBox">
      <stop offset="0" stop-color="#d10909"/>
      <stop offset="1" stop-color="#730000"/>
    </linearGradient>
  </defs>
  <g id="Filter">
    <path id="Fill_1" data-name="Fill 1" d="M6.357,0H1.186A1.169,1.169,0,0,0,0,1.151,1.17,1.17,0,0,0,1.186,2.3H6.357A1.17,1.17,0,0,0,7.543,1.151,1.169,1.169,0,0,0,6.357,0" transform="translate(0 10.068)" opacity="0.4" fill="url(#linear-gradient)"/>
    <path id="Fill_4" data-name="Fill 4" d="M7.542,1.15A1.169,1.169,0,0,0,6.357,0H1.186A1.169,1.169,0,0,0,0,1.15,1.169,1.169,0,0,0,1.186,2.3H6.357A1.169,1.169,0,0,0,7.542,1.15" transform="translate(8.187 1.475)" opacity="0.4" fill="url(#linear-gradient)"/>
    <path id="Fill_6" data-name="Fill 6" d="M5.409,2.625A2.666,2.666,0,0,1,2.7,5.251,2.666,2.666,0,0,1,0,2.625,2.666,2.666,0,0,1,2.7,0a2.665,2.665,0,0,1,2.7,2.625" transform="translate(0)" fill="url(#linear-gradient)"/>
    <path id="Fill_9" data-name="Fill 9" d="M5.409,2.626A2.665,2.665,0,0,1,2.7,5.251,2.666,2.666,0,0,1,0,2.626,2.666,2.666,0,0,1,2.7,0a2.666,2.666,0,0,1,2.7,2.626" transform="translate(10.32 8.562)" fill="url(#linear-gradient)"/>
  </g>
</svg>
